<svg width="1280" height="320" viewBox="0 0 1280 320" xmlns="http://www.w3.org/2000/svg">
  <defs>
    <!-- Sky gradient -->
    <linearGradient id="skyBg" x1="0" y1="0" x2="0" y2="320" gradientUnits="userSpaceOnUse">
      <stop offset="0%"  stop-color="#06001a"/>
      <stop offset="55%" stop-color="#140030"/>
      <stop offset="100%" stop-color="#280055"/>
    </linearGradient>
    <!-- Neon accent line gradient -->
    <linearGradient id="neonAccent" x1="0" y1="0" x2="1280" y2="0" gradientUnits="userSpaceOnUse">
      <stop offset="0%"   stop-color="#00f5ff" stop-opacity="0"/>
      <stop offset="20%"  stop-color="#00f5ff" stop-opacity="0.85"/>
      <stop offset="50%"  stop-color="#ff3dd1" stop-opacity="0.9"/>
      <stop offset="80%"  stop-color="#7c4dff" stop-opacity="0.85"/>
      <stop offset="100%" stop-color="#7c4dff" stop-opacity="0"/>
    </linearGradient>
    <!-- Vignette left -->
    <linearGradient id="vigL" x1="0" y1="0" x2="200" y2="0" gradientUnits="userSpaceOnUse">
      <stop offset="0%"   stop-color="#000000" stop-opacity="0.65"/>
      <stop offset="100%" stop-color="#000000" stop-opacity="0"/>
    </linearGradient>
    <!-- Vignette right -->
    <linearGradient id="vigR" x1="1080" y1="0" x2="1280" y2="0" gradientUnits="userSpaceOnUse">
      <stop offset="0%"   stop-color="#000000" stop-opacity="0"/>
      <stop offset="100%" stop-color="#000000" stop-opacity="0.65"/>
    </linearGradient>
    <!-- Moon radial -->
    <radialGradient id="moonGrad" cx="50%" cy="50%" r="50%">
      <stop offset="0%"   stop-color="#fffec0"/>
      <stop offset="65%"  stop-color="#ffe87a"/>
      <stop offset="100%" stop-color="#ffcc44" stop-opacity="0.15"/>
    </radialGradient>
    <!-- Grid pattern -->
    <pattern id="gridPat" width="40" height="40" patternUnits="userSpaceOnUse">
      <path d="M40 0L0 0L0 40" stroke="#6633cc" stroke-opacity="0.09" stroke-width="0.5" fill="none"/>
    </pattern>
    <!-- Clip path -->
    <clipPath id="mainClip"><rect width="1280" height="320"/></clipPath>
    <!-- Glow filters -->
    <filter id="fgC" x="-30%" y="-30%" width="160%" height="160%">
      <feGaussianBlur stdDeviation="4.5" result="blur"/>
      <feMerge><feMergeNode in="blur"/><feMergeNode in="SourceGraphic"/></feMerge>
    </filter>
    <filter id="fgP" x="-30%" y="-30%" width="160%" height="160%">
      <feGaussianBlur stdDeviation="6" result="blur"/>
      <feMerge><feMergeNode in="blur"/><feMergeNode in="SourceGraphic"/></feMerge>
    </filter>
    <filter id="fgM" x="-60%" y="-60%" width="220%" height="220%">
      <feGaussianBlur stdDeviation="12" result="blur"/>
      <feMerge><feMergeNode in="blur"/><feMergeNode in="SourceGraphic"/></feMerge>
    </filter>
  </defs>

  <!-- ── BACKGROUND ── -->
  <rect width="1280" height="320" fill="url(#skyBg)"/>
  <rect width="1280" height="320" fill="url(#gridPat)"/>

  <!-- ── STARS ── -->
  <circle cx="48"   cy="14" r="1"  fill="#fff" opacity=".75"><animate attributeName="opacity" values=".75;.2;.75"  dur="3.1s" begin="0s"    repeatCount="indefinite"/></circle>
  <circle cx="132"  cy="28" r="1.5" fill="#adf" opacity=".8"> <animate attributeName="opacity" values=".8;.25;.8"   dur="2.6s" begin="0.4s"  repeatCount="indefinite"/></circle>
  <circle cx="228"  cy="11" r="1"  fill="#fff" opacity=".65"><animate attributeName="opacity" values=".65;.15;.65" dur="4.2s" begin="0.8s"  repeatCount="indefinite"/></circle>
  <circle cx="312"  cy="30" r="1.5" fill="#fea" opacity=".7"> <animate attributeName="opacity" values=".7;.2;.7"    dur="3.6s" begin="1.2s"  repeatCount="indefinite"/></circle>
  <circle cx="396"  cy="17" r="1"  fill="#fff" opacity=".8"> <animate attributeName="opacity" values=".8;.2;.8"    dur="2.9s" begin="0.5s"  repeatCount="indefinite"/></circle>
  <circle cx="484"  cy="8"  r="1.5" fill="#adf" opacity=".6"> <animate attributeName="opacity" values=".6;.15;.6"   dur="3.3s" begin="1.5s"  repeatCount="indefinite"/></circle>
  <circle cx="572"  cy="23" r="1"  fill="#fff" opacity=".7"> <animate attributeName="opacity" values=".7;.25;.7"   dur="2.7s" begin="0.2s"  repeatCount="indefinite"/></circle>
  <circle cx="658"  cy="12" r="1.5" fill="#fea" opacity=".55"><animate attributeName="opacity" values=".55;.15;.55" dur="4.6s" begin="0.9s"  repeatCount="indefinite"/></circle>
  <circle cx="748"  cy="29" r="1"  fill="#fff" opacity=".75"><animate attributeName="opacity" values=".75;.2;.75"  dur="3s"   begin="1.8s"  repeatCount="indefinite"/></circle>
  <circle cx="836"  cy="15" r="1.5" fill="#adf" opacity=".65"><animate attributeName="opacity" values=".65;.2;.65"  dur="2.5s" begin="0.7s"  repeatCount="indefinite"/></circle>
  <circle cx="920"  cy="22" r="1"  fill="#fff" opacity=".7"> <animate attributeName="opacity" values=".7;.25;.7"   dur="3.9s" begin="1.1s"  repeatCount="indefinite"/></circle>
  <circle cx="1008" cy="10" r="1.5" fill="#fea" opacity=".75"><animate attributeName="opacity" values=".75;.25;.75" dur="3s"   begin="0.6s"  repeatCount="indefinite"/></circle>
  <circle cx="1092" cy="27" r="1"  fill="#fff" opacity=".6"> <animate attributeName="opacity" values=".6;.15;.6"   dur="4.3s" begin="2s"    repeatCount="indefinite"/></circle>
  <circle cx="1184" cy="14" r="1.5" fill="#adf" opacity=".7"> <animate attributeName="opacity" values=".7;.2;.7"    dur="2.8s" begin="0.3s"  repeatCount="indefinite"/></circle>
  <circle cx="1256" cy="31" r="1"  fill="#fff" opacity=".5"> <animate attributeName="opacity" values=".5;.12;.5"   dur="3.5s" begin="1.4s"  repeatCount="indefinite"/></circle>
  <circle cx="80"   cy="44" r="1"  fill="#fff" opacity=".5"> <animate attributeName="opacity" values=".5;.1;.5"    dur="5.1s" begin="0.3s"  repeatCount="indefinite"/></circle>
  <circle cx="192"  cy="52" r="1.5" fill="#fea" opacity=".6"> <animate attributeName="opacity" values=".6;.2;.6"    dur="3.6s" begin="1.6s"  repeatCount="indefinite"/></circle>
  <circle cx="360"  cy="47" r="1"  fill="#fff" opacity=".5"> <animate attributeName="opacity" values=".5;.12;.5"   dur="4.1s" begin="0.1s"  repeatCount="indefinite"/></circle>
  <circle cx="522"  cy="39" r="1.5" fill="#adf" opacity=".45"><animate attributeName="opacity" values=".45;.1;.45"  dur="6.2s" begin="2.2s"  repeatCount="indefinite"/></circle>
  <circle cx="704"  cy="50" r="1"  fill="#fff" opacity=".6"> <animate attributeName="opacity" values=".6;.2;.6"    dur="3s"   begin="0.8s"  repeatCount="indefinite"/></circle>
  <circle cx="880"  cy="37" r="1.5" fill="#fea" opacity=".5"> <animate attributeName="opacity" values=".5;.12;.5"   dur="4.6s" begin="1.3s"  repeatCount="indefinite"/></circle>
  <circle cx="1050" cy="43" r="1"  fill="#fff" opacity=".6"> <animate attributeName="opacity" values=".6;.2;.6"    dur="3.3s" begin="0.4s"  repeatCount="indefinite"/></circle>
  <circle cx="1188" cy="39" r="1.5" fill="#adf" opacity=".5"> <animate attributeName="opacity" values=".5;.12;.5"   dur="4s"   begin="1.7s"  repeatCount="indefinite"/></circle>
  <circle cx="284"  cy="57" r="1"  fill="#fff" opacity=".4"> <animate attributeName="opacity" values=".4;.08;.4"   dur="5.6s" begin="0.6s"  repeatCount="indefinite"/></circle>
  <circle cx="464"  cy="61" r="1"  fill="#fea" opacity=".45"><animate attributeName="opacity" values=".45;.1;.45"  dur="4.9s" begin="2.4s"  repeatCount="indefinite"/></circle>
  <circle cx="642"  cy="54" r="1.5" fill="#fff" opacity=".4"> <animate attributeName="opacity" values=".4;.08;.4"   dur="6s"   begin="0s"    repeatCount="indefinite"/></circle>
  <circle cx="824"  cy="54" r="1"  fill="#adf" opacity=".5"> <animate attributeName="opacity" values=".5;.12;.5"   dur="4s"   begin="1.9s"  repeatCount="indefinite"/></circle>
  <circle cx="1002" cy="59" r="1"  fill="#fff" opacity=".4"> <animate attributeName="opacity" values=".4;.08;.4"   dur="5s"   begin="0.5s"  repeatCount="indefinite"/></circle>

  <!-- ── MOON ── -->
  <circle cx="108" cy="56" r="40" fill="#1e0040" opacity=".4"  filter="url(#fgM)"/>
  <circle cx="108" cy="56" r="24" fill="url(#moonGrad)"         filter="url(#fgM)"/>
  <circle cx="108" cy="56" r="30" fill="none" stroke="#ffe87a" stroke-width="1.5" opacity=".22"/>

  <!-- ── BACK-LAYER BUILDINGS ── -->
  <g fill="#110025">
    <rect x="0"    y="222" width="48" height="98"/>
    <rect x="55"   y="204" width="62" height="116"/>
    <rect x="125"  y="183" width="54" height="137"/>
    <rect x="187"  y="225" width="38" height="95"/>
    <rect x="233"  y="197" width="74" height="123"/>
    <rect x="315"  y="214" width="50" height="106"/>
    <rect x="373"  y="178" width="66" height="142"/>
    <rect x="447"  y="208" width="56" height="112"/>
    <rect x="511"  y="223" width="44" height="97"/>
    <rect x="563"  y="191" width="70" height="129"/>
    <rect x="641"  y="207" width="52" height="113"/>
    <rect x="701"  y="178" width="68" height="142"/>
    <rect x="777"  y="214" width="50" height="106"/>
    <rect x="835"  y="191" width="72" height="129"/>
    <rect x="915"  y="208" width="54" height="112"/>
    <rect x="977"  y="180" width="66" height="140"/>
    <rect x="1051" y="208" width="50" height="112"/>
    <rect x="1109" y="184" width="68" height="136"/>
    <rect x="1185" y="208" width="50" height="112"/>
    <rect x="1243" y="198" width="37" height="122"/>
  </g>

  <!-- Antennas -->
  <g fill="#110025">
    <rect x="149"  y="170" width="5" height="18"/>
    <rect x="401"  y="168" width="5" height="16"/>
    <rect x="729"  y="168" width="5" height="16"/>
    <rect x="1003" y="170" width="5" height="16"/>
    <rect x="1137" y="174" width="5" height="15"/>
  </g>
  <!-- Antenna beacon lights -->
  <circle cx="151"  cy="168" r="3" fill="#ff3dd1" filter="url(#fgP)"><animate attributeName="opacity" values="1;0.08;1;1" dur="2s"   begin="0s"   repeatCount="indefinite" keyTimes="0;0.1;0.2;1"/></circle>
  <circle cx="403"  cy="166" r="3" fill="#00f5ff" filter="url(#fgC)"><animate attributeName="opacity" values="1;0.08;1;1" dur="2s"   begin="0.6s" repeatCount="indefinite" keyTimes="0;0.1;0.2;1"/></circle>
  <circle cx="731"  cy="166" r="3" fill="#ff3dd1" filter="url(#fgP)"><animate attributeName="opacity" values="1;0.08;1;1" dur="2s"   begin="1.2s" repeatCount="indefinite" keyTimes="0;0.1;0.2;1"/></circle>
  <circle cx="1005" cy="168" r="3" fill="#00f5ff" filter="url(#fgC)"><animate attributeName="opacity" values="1;0.08;1;1" dur="2s"   begin="0.3s" repeatCount="indefinite" keyTimes="0;0.1;0.2;1"/></circle>
  <circle cx="1139" cy="172" r="3" fill="#ff3dd1" filter="url(#fgP)"><animate attributeName="opacity" values="1;0.08;1;1" dur="2s"   begin="0.9s" repeatCount="indefinite" keyTimes="0;0.1;0.2;1"/></circle>

  <!-- Cyan windows -->
  <g fill="#00f5ff" filter="url(#fgC)">
    <rect x="67"   y="212" width="8" height="6" opacity=".85"/>
    <rect x="79"   y="222" width="8" height="6" opacity=".65"/>
    <rect x="67"   y="232" width="8" height="6" opacity=".7"/>
    <rect x="136"  y="191" width="9" height="7" opacity=".9"/>
    <rect x="149"  y="201" width="9" height="7" opacity=".6"/>
    <rect x="136"  y="213" width="9" height="7" opacity=".75"/>
    <rect x="384"  y="186" width="9" height="7" opacity=".8"/>
    <rect x="397"  y="196" width="9" height="7" opacity=".9"/>
    <rect x="384"  y="208" width="9" height="7" opacity=".55"/>
    <rect x="573"  y="199" width="8" height="6" opacity=".9"/>
    <rect x="585"  y="209" width="8" height="6" opacity=".65"/>
    <rect x="711"  y="186" width="9" height="7" opacity=".8"/>
    <rect x="724"  y="196" width="9" height="7" opacity=".9"/>
    <rect x="711"  y="208" width="9" height="7" opacity=".5"/>
    <rect x="987"  y="188" width="9" height="7" opacity=".9"/>
    <rect x="1000" y="198" width="9" height="7" opacity=".7"/>
    <rect x="1119" y="192" width="9" height="7" opacity=".8"/>
    <rect x="1132" y="202" width="9" height="7" opacity=".9"/>
  </g>
  <!-- Pink windows -->
  <g fill="#ff3dd1" filter="url(#fgP)">
    <rect x="245"  y="205" width="8" height="6" opacity=".9"/>
    <rect x="257"  y="215" width="8" height="6" opacity=".65"/>
    <rect x="245"  y="225" width="8" height="6" opacity=".55"/>
    <rect x="459"  y="216" width="8" height="6" opacity=".8"/>
    <rect x="471"  y="226" width="8" height="6" opacity=".5"/>
    <rect x="845"  y="199" width="9" height="7" opacity=".9"/>
    <rect x="858"  y="209" width="9" height="7" opacity=".7"/>
    <rect x="1195" y="216" width="8" height="6" opacity=".8"/>
    <rect x="1207" y="226" width="8" height="6" opacity=".5"/>
  </g>
  <!-- Yellow windows -->
  <g fill="#ffcc00">
    <rect x="326"  y="222" width="7" height="5" opacity=".8"/>
    <rect x="337"  y="232" width="7" height="5" opacity=".55"/>
    <rect x="651"  y="215" width="7" height="5" opacity=".85"/>
    <rect x="662"  y="225" width="7" height="5" opacity=".6"/>
    <rect x="1059" y="216" width="7" height="5" opacity=".8"/>
    <rect x="1070" y="226" width="7" height="5" opacity=".5"/>
    <rect x="1253" y="206" width="7" height="5" opacity=".9"/>
    <rect x="1264" y="216" width="7" height="5" opacity=".6"/>
  </g>
  <!-- Green windows -->
  <g fill="#44ff88">
    <rect x="788"  y="221" width="7" height="5" opacity=".65"/>
    <rect x="799"  y="231" width="7" height="5" opacity=".5"/>
  </g>

  <!-- ── FRONT-LAYER BUILDINGS ── -->
  <g fill="#080012">
    <rect x="0"    y="265" width="40" height="55"/>
    <rect x="47"   y="252" width="55" height="68"/>
    <rect x="109"  y="260" width="42" height="60"/>
    <rect x="157"  y="248" width="60" height="72"/>
    <rect x="225"  y="268" width="34" height="52"/>
    <rect x="267"  y="256" width="50" height="64"/>
    <rect x="325"  y="265" width="40" height="55"/>
    <rect x="373"  y="252" width="56" height="68"/>
    <rect x="437"  y="262" width="42" height="58"/>
    <rect x="487"  y="250" width="58" height="70"/>
    <rect x="553"  y="265" width="38" height="55"/>
    <rect x="599"  y="252" width="56" height="68"/>
    <rect x="663"  y="262" width="40" height="58"/>
    <rect x="711"  y="250" width="58" height="70"/>
    <rect x="777"  y="265" width="40" height="55"/>
    <rect x="825"  y="252" width="56" height="68"/>
    <rect x="889"  y="262" width="42" height="58"/>
    <rect x="939"  y="250" width="58" height="70"/>
    <rect x="1005" y="265" width="40" height="55"/>
    <rect x="1053" y="252" width="56" height="68"/>
    <rect x="1117" y="262" width="40" height="58"/>
    <rect x="1165" y="250" width="56" height="70"/>
    <rect x="1229" y="260" width="51" height="60"/>
  </g>

  <!-- ── GROUND & STREET GLOW ── -->
  <rect x="0" y="313" width="1280" height="7" fill="#1c003e"/>
  <rect x="0" y="296" width="1280" height="20" fill="#3300aa" opacity=".1"/>
  <line x1="0" y1="307" x2="1280" y2="307" stroke="#00f5ff" stroke-width="1"    stroke-opacity=".28"/>
  <line x1="0" y1="310" x2="1280" y2="310" stroke="#ff3dd1" stroke-width=".75"  stroke-opacity=".18"/>

  <!-- ── NEON ACCENT LINES ── -->
  <line x1="0" y1="88"  x2="1280" y2="88"  stroke="url(#neonAccent)" stroke-width="1.5" opacity=".55"/>
  <line x1="0" y1="212" x2="1280" y2="212" stroke="url(#neonAccent)" stroke-width="1"   opacity=".3"/>

  <!-- Pixel corner decorations -->
  <g fill="#7c4dff" opacity=".7">
    <rect x="330" y="94" width="6" height="6"/>
    <rect x="336" y="88" width="6" height="6"/>
    <rect x="944" y="94" width="6" height="6"/>
    <rect x="938" y="88" width="6" height="6"/>
  </g>
  <g fill="#00f5ff" opacity=".5">
    <rect x="342" y="88" width="4" height="4"/>
    <rect x="934" y="88" width="4" height="4"/>
  </g>

  <!-- ══════════════════════════════════════════════
       NAME  [ VINCENT PEREZ ]  — per-letter wave
       Font: Courier New 68px bold  ≈ 41px / char
       Positions (x):
         [:333  V:374  I:415  N:456  C:497  E:538
          N:579 T:620  (gap)  P:702  E:743  R:784
          E:825 Z:866  ]:907   →  centered ≈ 640
       ══════════════════════════════════════════════ -->

  <!-- Left bracket -->
  <text x="333" y="158" font-family="'Courier New',Courier,monospace" font-size="68" font-weight="900" fill="#7c4dff" opacity=".85" filter="url(#fgC)">[<animateTransform attributeName="transform" type="translate" values="0,0;0,-6;0,0" dur="2s" begin="0s"    repeatCount="indefinite" calcMode="spline" keySplines="0.42 0 0.58 1;0.42 0 0.58 1" keyTimes="0;0.5;1"/></text>

  <!-- V -->
  <text x="374" y="158" font-family="'Courier New',Courier,monospace" font-size="68" font-weight="900" fill="#00f5ff" filter="url(#fgC)">V<animateTransform attributeName="transform" type="translate" values="0,0;0,-9;0,0" dur="2s" begin="0.12s"  repeatCount="indefinite" calcMode="spline" keySplines="0.42 0 0.58 1;0.42 0 0.58 1" keyTimes="0;0.5;1"/></text>

  <!-- I -->
  <text x="415" y="158" font-family="'Courier New',Courier,monospace" font-size="68" font-weight="900" fill="#00f5ff" filter="url(#fgC)">I<animateTransform attributeName="transform" type="translate" values="0,0;0,-9;0,0" dur="2s" begin="0.24s"  repeatCount="indefinite" calcMode="spline" keySplines="0.42 0 0.58 1;0.42 0 0.58 1" keyTimes="0;0.5;1"/></text>

  <!-- N -->
  <text x="456" y="158" font-family="'Courier New',Courier,monospace" font-size="68" font-weight="900" fill="#00f5ff" filter="url(#fgC)">N<animateTransform attributeName="transform" type="translate" values="0,0;0,-9;0,0" dur="2s" begin="0.36s"  repeatCount="indefinite" calcMode="spline" keySplines="0.42 0 0.58 1;0.42 0 0.58 1" keyTimes="0;0.5;1"/></text>

  <!-- C -->
  <text x="497" y="158" font-family="'Courier New',Courier,monospace" font-size="68" font-weight="900" fill="#00f5ff" filter="url(#fgC)">C<animateTransform attributeName="transform" type="translate" values="0,0;0,-9;0,0" dur="2s" begin="0.48s"  repeatCount="indefinite" calcMode="spline" keySplines="0.42 0 0.58 1;0.42 0 0.58 1" keyTimes="0;0.5;1"/></text>

  <!-- E -->
  <text x="538" y="158" font-family="'Courier New',Courier,monospace" font-size="68" font-weight="900" fill="#00f5ff" filter="url(#fgC)">E<animateTransform attributeName="transform" type="translate" values="0,0;0,-9;0,0" dur="2s" begin="0.60s"  repeatCount="indefinite" calcMode="spline" keySplines="0.42 0 0.58 1;0.42 0 0.58 1" keyTimes="0;0.5;1"/></text>

  <!-- N -->
  <text x="579" y="158" font-family="'Courier New',Courier,monospace" font-size="68" font-weight="900" fill="#00f5ff" filter="url(#fgC)">N<animateTransform attributeName="transform" type="translate" values="0,0;0,-9;0,0" dur="2s" begin="0.72s"  repeatCount="indefinite" calcMode="spline" keySplines="0.42 0 0.58 1;0.42 0 0.58 1" keyTimes="0;0.5;1"/></text>

  <!-- T -->
  <text x="620" y="158" font-family="'Courier New',Courier,monospace" font-size="68" font-weight="900" fill="#00f5ff" filter="url(#fgC)">T<animateTransform attributeName="transform" type="translate" values="0,0;0,-9;0,0" dur="2s" begin="0.84s"  repeatCount="indefinite" calcMode="spline" keySplines="0.42 0 0.58 1;0.42 0 0.58 1" keyTimes="0;0.5;1"/></text>

  <!-- P (one space gap at 661) -->
  <text x="702" y="158" font-family="'Courier New',Courier,monospace" font-size="68" font-weight="900" fill="#00f5ff" filter="url(#fgC)">P<animateTransform attributeName="transform" type="translate" values="0,0;0,-9;0,0" dur="2s" begin="0.96s"  repeatCount="indefinite" calcMode="spline" keySplines="0.42 0 0.58 1;0.42 0 0.58 1" keyTimes="0;0.5;1"/></text>

  <!-- E -->
  <text x="743" y="158" font-family="'Courier New',Courier,monospace" font-size="68" font-weight="900" fill="#00f5ff" filter="url(#fgC)">E<animateTransform attributeName="transform" type="translate" values="0,0;0,-9;0,0" dur="2s" begin="1.08s"  repeatCount="indefinite" calcMode="spline" keySplines="0.42 0 0.58 1;0.42 0 0.58 1" keyTimes="0;0.5;1"/></text>

  <!-- R -->
  <text x="784" y="158" font-family="'Courier New',Courier,monospace" font-size="68" font-weight="900" fill="#00f5ff" filter="url(#fgC)">R<animateTransform attributeName="transform" type="translate" values="0,0;0,-9;0,0" dur="2s" begin="1.20s"  repeatCount="indefinite" calcMode="spline" keySplines="0.42 0 0.58 1;0.42 0 0.58 1" keyTimes="0;0.5;1"/></text>

  <!-- E -->
  <text x="825" y="158" font-family="'Courier New',Courier,monospace" font-size="68" font-weight="900" fill="#00f5ff" filter="url(#fgC)">E<animateTransform attributeName="transform" type="translate" values="0,0;0,-9;0,0" dur="2s" begin="1.32s"  repeatCount="indefinite" calcMode="spline" keySplines="0.42 0 0.58 1;0.42 0 0.58 1" keyTimes="0;0.5;1"/></text>

  <!-- Z -->
  <text x="866" y="158" font-family="'Courier New',Courier,monospace" font-size="68" font-weight="900" fill="#00f5ff" filter="url(#fgC)">Z<animateTransform attributeName="transform" type="translate" values="0,0;0,-9;0,0" dur="2s" begin="1.44s"  repeatCount="indefinite" calcMode="spline" keySplines="0.42 0 0.58 1;0.42 0 0.58 1" keyTimes="0;0.5;1"/></text>

  <!-- Right bracket -->
  <text x="907" y="158" font-family="'Courier New',Courier,monospace" font-size="68" font-weight="900" fill="#7c4dff" opacity=".85" filter="url(#fgC)">]<animateTransform attributeName="transform" type="translate" values="0,0;0,-6;0,0" dur="2s" begin="1.56s"  repeatCount="indefinite" calcMode="spline" keySplines="0.42 0 0.58 1;0.42 0 0.58 1" keyTimes="0;0.5;1"/></text>

  <!-- ── SUBTITLE ── -->
  <text x="640" y="196"
        font-family="'Courier New',Courier,monospace"
        font-size="19" font-weight="700"
        fill="#ff3dd1" text-anchor="middle" filter="url(#fgP)">&#9670;  Built different, mostly incorrectly &#9670;<animate attributeName="opacity" values=".9;.55;.9" dur="3s" repeatCount="indefinite"/></text>

  <!-- ── MOVING SCAN BAR (CRT) ── -->
  <rect x="0" y="0" width="1280" height="2" fill="#ffffff" opacity=".07" clip-path="url(#mainClip)">
    <animateTransform attributeName="transform" type="translate" values="0,-2;0,322" dur="8s" repeatCount="indefinite" calcMode="linear"/>
  </rect>

  <!-- ── VIGNETTE EDGES ── -->
  <rect width="1280" height="320" fill="url(#vigL)"/>
  <rect width="1280" height="320" fill="url(#vigR)"/>
</svg>
