<svg width="1280" height="430" viewBox="0 0 1280 430" xmlns="http://www.w3.org/2000/svg" role="img" aria-label="GitHub stats for vincentperezzz">
  <defs>
    <linearGradient id="skyBg" x1="0" y1="0" x2="0" y2="430" gradientUnits="userSpaceOnUse">
      <stop offset="0%" stop-color="#06001a"/>
      <stop offset="55%" stop-color="#140030"/>
      <stop offset="100%" stop-color="#280055"/>
    </linearGradient>
    <linearGradient id="neonAccent" x1="0" y1="0" x2="1280" y2="0" gradientUnits="userSpaceOnUse">
      <stop offset="0%" stop-color="#00f5ff" stop-opacity="0"/>
      <stop offset="20%" stop-color="#00f5ff" stop-opacity="0.85"/>
      <stop offset="50%" stop-color="#ff3dd1" stop-opacity="0.9"/>
      <stop offset="80%" stop-color="#7c4dff" stop-opacity="0.85"/>
      <stop offset="100%" stop-color="#7c4dff" stop-opacity="0"/>
    </linearGradient>
    <pattern id="gridPat" width="40" height="40" patternUnits="userSpaceOnUse">
      <path d="M40 0L0 0L0 40" stroke="#6633cc" stroke-opacity="0.09" stroke-width="0.5" fill="none"/>
    </pattern>
    <filter id="glow" x="-30%" y="-30%" width="160%" height="160%">
      <feGaussianBlur stdDeviation="3.2" result="blur"/>
      <feMerge>
        <feMergeNode in="blur"/>
        <feMergeNode in="SourceGraphic"/>
      </feMerge>
    </filter>
    <clipPath id="mainClip"><rect width="1280" height="430" rx="0"/></clipPath>
  </defs>

  <rect width="1280" height="430" fill="url(#skyBg)"/>
  <rect width="1280" height="430" fill="url(#gridPat)"/>

  <text x="28" y="42" font-family="'Courier New',Courier,monospace" font-size="28" font-weight="900" fill="#7c4dff" filter="url(#glow)">[</text>
  <text x="52" y="42" font-family="'Courier New',Courier,monospace" font-size="22" font-weight="900" fill="#00f5ff" filter="url(#glow)">GITHUB // STATS</text>
  <text x="292" y="42" font-family="'Courier New',Courier,monospace" font-size="28" font-weight="900" fill="#7c4dff" filter="url(#glow)">]</text>
  <text x="640" y="40" font-family="'Courier New',Courier,monospace" font-size="14" font-weight="700" fill="#ff3dd1" text-anchor="middle" filter="url(#glow)">&#9670;  VINCENTPEREZZZ  &#9670;</text>
  <circle cx="1218" cy="34" r="6" fill="#00f5ff" filter="url(#glow)">
    <animate attributeName="opacity" values="1;0.2;1" dur="1.8s" repeatCount="indefinite"/>
  </circle>
  <text x="1206" y="40" font-family="'Courier New',Courier,monospace" font-size="12" font-weight="700" fill="#8a7ab8" text-anchor="end">LIVE</text>

  <line x1="0" y1="58" x2="1280" y2="58" stroke="url(#neonAccent)" stroke-width="1.5" opacity=".7"/>
  <g fill="#7c4dff" opacity=".7">
    <rect x="330" y="64" width="6" height="6"/>
    <rect x="336" y="58" width="6" height="6"/>
    <rect x="944" y="64" width="6" height="6"/>
    <rect x="938" y="58" width="6" height="6"/>
  </g>
  <g fill="#00f5ff" opacity=".5">
    <rect x="342" y="58" width="4" height="4"/>
    <rect x="934" y="58" width="4" height="4"/>
  </g>

  
  <g>
    <rect x="24" y="78" width="235" height="108" rx="6" fill="#110025" stroke="#7c4dff" stroke-opacity=".45"/>
    <rect x="24" y="78" width="235" height="3" fill="#00f5ff" opacity=".85"/>
    <text x="42" y="108" font-family="'Courier New',Courier,monospace" font-size="12" font-weight="700" fill="#ff3dd1">CONTRIBUTIONS</text>
    <text x="42" y="148" font-family="'Courier New',Courier,monospace" font-size="32" font-weight="900" fill="#00f5ff" filter="url(#glow)">2,038</text>
    <text x="42" y="170" font-family="'Courier New',Courier,monospace" font-size="11" fill="#8a7ab8">1,174 THIS YEAR</text>
  </g>
  <g>
    <rect x="271" y="78" width="235" height="108" rx="6" fill="#110025" stroke="#7c4dff" stroke-opacity=".45"/>
    <rect x="271" y="78" width="235" height="3" fill="#00f5ff" opacity=".85"/>
    <text x="289" y="108" font-family="'Courier New',Courier,monospace" font-size="12" font-weight="700" fill="#ff3dd1">COMMITS</text>
    <text x="289" y="148" font-family="'Courier New',Courier,monospace" font-size="32" font-weight="900" fill="#00f5ff" filter="url(#glow)">1,024</text>
    <text x="289" y="170" font-family="'Courier New',Courier,monospace" font-size="11" fill="#8a7ab8">245 ACTIVE DAYS</text>
  </g>
  <g>
    <rect x="518" y="78" width="235" height="108" rx="6" fill="#110025" stroke="#7c4dff" stroke-opacity=".45"/>
    <rect x="518" y="78" width="235" height="3" fill="#00f5ff" opacity=".85"/>
    <text x="536" y="108" font-family="'Courier New',Courier,monospace" font-size="12" font-weight="700" fill="#ff3dd1">PULL REQUESTS</text>
    <text x="536" y="148" font-family="'Courier New',Courier,monospace" font-size="32" font-weight="900" fill="#00f5ff" filter="url(#glow)">39</text>
    <text x="536" y="170" font-family="'Courier New',Courier,monospace" font-size="11" fill="#8a7ab8">10 ISSUES</text>
  </g>
  <g>
    <rect x="765" y="78" width="235" height="108" rx="6" fill="#110025" stroke="#7c4dff" stroke-opacity=".45"/>
    <rect x="765" y="78" width="235" height="3" fill="#00f5ff" opacity=".85"/>
    <text x="783" y="108" font-family="'Courier New',Courier,monospace" font-size="12" font-weight="700" fill="#ff3dd1">REPOS</text>
    <text x="783" y="148" font-family="'Courier New',Courier,monospace" font-size="32" font-weight="900" fill="#00f5ff" filter="url(#glow)">23</text>
    <text x="783" y="170" font-family="'Courier New',Courier,monospace" font-size="11" fill="#8a7ab8">1 STAR</text>
  </g>
  <g>
    <rect x="1012" y="78" width="235" height="108" rx="6" fill="#110025" stroke="#7c4dff" stroke-opacity=".45"/>
    <rect x="1012" y="78" width="235" height="3" fill="#00f5ff" opacity=".85"/>
    <text x="1030" y="108" font-family="'Courier New',Courier,monospace" font-size="12" font-weight="700" fill="#ff3dd1">STREAK</text>
    <text x="1030" y="148" font-family="'Courier New',Courier,monospace" font-size="32" font-weight="900" fill="#00f5ff" filter="url(#glow)">3D</text>
    <text x="1030" y="170" font-family="'Courier New',Courier,monospace" font-size="11" fill="#8a7ab8">BEST 18D</text>
  </g>

  <rect x="24" y="202" width="512" height="186" rx="6" fill="#110025" stroke="#7c4dff" stroke-opacity=".45"/>
  <rect x="24" y="202" width="512" height="3" fill="#ff3dd1" opacity=".8"/>
  <text x="42" y="226" font-family="'Courier New',Courier,monospace" font-size="13" font-weight="700" fill="#00f5ff">TOP LANGUAGES</text>
  <text x="48" y="254" font-family="'Courier New',Courier,monospace" font-size="12" font-weight="700" fill="#c8b8ff">PYTHON</text><rect x="168" y="243" width="340" height="10" rx="2" fill="#1a0036"/><rect x="168" y="243" width="340" height="10" rx="2" fill="#00f5ff" filter="url(#glow)"/><text x="48" y="276" font-family="'Courier New',Courier,monospace" font-size="12" font-weight="700" fill="#c8b8ff">JAVASCRIPT</text><rect x="168" y="265" width="340" height="10" rx="2" fill="#1a0036"/><rect x="168" y="265" width="226" height="10" rx="2" fill="#ff3dd1" filter="url(#glow)"/><text x="48" y="298" font-family="'Courier New',Courier,monospace" font-size="12" font-weight="700" fill="#c8b8ff">DART</text><rect x="168" y="287" width="340" height="10" rx="2" fill="#1a0036"/><rect x="168" y="287" width="143" height="10" rx="2" fill="#7c4dff" filter="url(#glow)"/><text x="48" y="320" font-family="'Courier New',Courier,monospace" font-size="12" font-weight="700" fill="#c8b8ff">TYPESCRIPT</text><rect x="168" y="309" width="340" height="10" rx="2" fill="#1a0036"/><rect x="168" y="309" width="55" height="10" rx="2" fill="#ffe87a" filter="url(#glow)"/><text x="48" y="342" font-family="'Courier New',Courier,monospace" font-size="12" font-weight="700" fill="#c8b8ff">C++</text><rect x="168" y="331" width="340" height="10" rx="2" fill="#1a0036"/><rect x="168" y="331" width="34" height="10" rx="2" fill="#44ff88" filter="url(#glow)"/><text x="48" y="364" font-family="'Courier New',Courier,monospace" font-size="12" font-weight="700" fill="#c8b8ff">C#</text><rect x="168" y="353" width="340" height="10" rx="2" fill="#1a0036"/><rect x="168" y="353" width="30" height="10" rx="2" fill="#ffcc00" filter="url(#glow)"/>

  <rect x="548" y="202" width="708" height="186" rx="6" fill="#110025" stroke="#7c4dff" stroke-opacity=".45"/>
  <rect x="548" y="202" width="708" height="3" fill="#7c4dff" opacity=".9"/>
  <text x="566" y="226" font-family="'Courier New',Courier,monospace" font-size="13" font-weight="700" fill="#00f5ff">SIGNAL HEAT</text>
  <text x="1236" y="226" font-family="'Courier New',Courier,monospace" font-size="11" fill="#8a7ab8" text-anchor="end">LAST 12 MONTHS</text>
  <text x="566" y="244" font-family="'Courier New',Courier,monospace" font-size="10" fill="#8a7ab8">Aug</text><text x="578" y="244" font-family="'Courier New',Courier,monospace" font-size="10" fill="#8a7ab8">Sep</text><text x="626" y="244" font-family="'Courier New',Courier,monospace" font-size="10" fill="#8a7ab8">Oct</text><text x="674" y="244" font-family="'Courier New',Courier,monospace" font-size="10" fill="#8a7ab8">Nov</text><text x="734" y="244" font-family="'Courier New',Courier,monospace" font-size="10" fill="#8a7ab8">Dec</text><text x="782" y="244" font-family="'Courier New',Courier,monospace" font-size="10" fill="#8a7ab8">Jan</text><text x="830" y="244" font-family="'Courier New',Courier,monospace" font-size="10" fill="#8a7ab8">Feb</text><text x="878" y="244" font-family="'Courier New',Courier,monospace" font-size="10" fill="#8a7ab8">Mar</text><text x="938" y="244" font-family="'Courier New',Courier,monospace" font-size="10" fill="#8a7ab8">Apr</text><text x="986" y="244" font-family="'Courier New',Courier,monospace" font-size="10" fill="#8a7ab8">May</text><text x="1046" y="244" font-family="'Courier New',Courier,monospace" font-size="10" fill="#8a7ab8">Jun</text><text x="1094" y="244" font-family="'Courier New',Courier,monospace" font-size="10" fill="#8a7ab8">Jul</text><text x="1142" y="244" font-family="'Courier New',Courier,monospace" font-size="10" fill="#8a7ab8">Aug</text>
  <rect x="566" y="256" width="10" height="10" rx="2" fill="#1a0036"><title>2025-08-31: 0</title></rect><rect x="566" y="268" width="10" height="10" rx="2" fill="#2a1060"><title>2025-09-01: 1</title></rect><rect x="566" y="280" width="10" height="10" rx="2" fill="#2a1060"><title>2025-09-02: 2</title></rect><rect x="566" y="292" width="10" height="10" rx="2" fill="#2a1060"><title>2025-09-03: 7</title></rect><rect x="566" y="304" width="10" height="10" rx="2" fill="#1a0036"><title>2025-09-04: 0</title></rect><rect x="566" y="316" width="10" height="10" rx="2" fill="#2a1060"><title>2025-09-05: 7</title></rect><rect x="566" y="328" width="10" height="10" rx="2" fill="#2a1060"><title>2025-09-06: 6</title></rect><rect x="578" y="256" width="10" height="10" rx="2" fill="#1a0036"><title>2025-09-07: 0</title></rect><rect x="578" y="268" width="10" height="10" rx="2" fill="#2a1060"><title>2025-09-08: 1</title></rect><rect x="578" y="280" width="10" height="10" rx="2" fill="#1a0036"><title>2025-09-09: 0</title></rect><rect x="578" y="292" width="10" height="10" rx="2" fill="#1a0036"><title>2025-09-10: 0</title></rect><rect x="578" y="304" width="10" height="10" rx="2" fill="#1a0036"><title>2025-09-11: 0</title></rect><rect x="578" y="316" width="10" height="10" rx="2" fill="#1a0036"><title>2025-09-12: 0</title></rect><rect x="578" y="328" width="10" height="10" rx="2" fill="#2a1060"><title>2025-09-13: 5</title></rect><rect x="590" y="256" width="10" height="10" rx="2" fill="#1a0036"><title>2025-09-14: 0</title></rect><rect x="590" y="268" width="10" height="10" rx="2" fill="#1a0036"><title>2025-09-15: 0</title></rect><rect x="590" y="280" width="10" height="10" rx="2" fill="#1a0036"><title>2025-09-16: 0</title></rect><rect x="590" y="292" width="10" height="10" rx="2" fill="#1a0036"><title>2025-09-17: 0</title></rect><rect x="590" y="304" width="10" height="10" rx="2" fill="#1a0036"><title>2025-09-18: 0</title></rect><rect x="590" y="316" width="10" height="10" rx="2" fill="#1a0036"><title>2025-09-19: 0</title></rect><rect x="590" y="328" width="10" height="10" rx="2" fill="#1a0036"><title>2025-09-20: 0</title></rect><rect x="602" y="256" width="10" height="10" rx="2" fill="#1a0036"><title>2025-09-21: 0</title></rect><rect x="602" y="268" width="10" height="10" rx="2" fill="#1a0036"><title>2025-09-22: 0</title></rect><rect x="602" y="280" width="10" height="10" rx="2" fill="#1a0036"><title>2025-09-23: 0</title></rect><rect x="602" y="292" width="10" height="10" rx="2" fill="#1a0036"><title>2025-09-24: 0</title></rect><rect x="602" y="304" width="10" height="10" rx="2" fill="#1a0036"><title>2025-09-25: 0</title></rect><rect x="602" y="316" width="10" height="10" rx="2" fill="#1a0036"><title>2025-09-26: 0</title></rect><rect x="602" y="328" width="10" height="10" rx="2" fill="#1a0036"><title>2025-09-27: 0</title></rect><rect x="614" y="256" width="10" height="10" rx="2" fill="#1a0036"><title>2025-09-28: 0</title></rect><rect x="614" y="268" width="10" height="10" rx="2" fill="#1a0036"><title>2025-09-29: 0</title></rect><rect x="614" y="280" width="10" height="10" rx="2" fill="#1a0036"><title>2025-09-30: 0</title></rect><rect x="614" y="292" width="10" height="10" rx="2" fill="#1a0036"><title>2025-10-01: 0</title></rect><rect x="614" y="304" width="10" height="10" rx="2" fill="#1a0036"><title>2025-10-02: 0</title></rect><rect x="614" y="316" width="10" height="10" rx="2" fill="#1a0036"><title>2025-10-03: 0</title></rect><rect x="614" y="328" width="10" height="10" rx="2" fill="#1a0036"><title>2025-10-04: 0</title></rect><rect x="626" y="256" width="10" height="10" rx="2" fill="#1a0036"><title>2025-10-05: 0</title></rect><rect x="626" y="268" width="10" height="10" rx="2" fill="#1a0036"><title>2025-10-06: 0</title></rect><rect x="626" y="280" width="10" height="10" rx="2" fill="#1a0036"><title>2025-10-07: 0</title></rect><rect x="626" y="292" width="10" height="10" rx="2" fill="#1a0036"><title>2025-10-08: 0</title></rect><rect x="626" y="304" width="10" height="10" rx="2" fill="#1a0036"><title>2025-10-09: 0</title></rect><rect x="626" y="316" width="10" height="10" rx="2" fill="#1a0036"><title>2025-10-10: 0</title></rect><rect x="626" y="328" width="10" height="10" rx="2" fill="#1a0036"><title>2025-10-11: 0</title></rect><rect x="638" y="256" width="10" height="10" rx="2" fill="#1a0036"><title>2025-10-12: 0</title></rect><rect x="638" y="268" width="10" height="10" rx="2" fill="#2a1060"><title>2025-10-13: 1</title></rect><rect x="638" y="280" width="10" height="10" rx="2" fill="#1a0036"><title>2025-10-14: 0</title></rect><rect x="638" y="292" width="10" height="10" rx="2" fill="#1a0036"><title>2025-10-15: 0</title></rect><rect x="638" y="304" width="10" height="10" rx="2" fill="#1a0036"><title>2025-10-16: 0</title></rect><rect x="638" y="316" width="10" height="10" rx="2" fill="#1a0036"><title>2025-10-17: 0</title></rect><rect x="638" y="328" width="10" height="10" rx="2" fill="#1a0036"><title>2025-10-18: 0</title></rect><rect x="650" y="256" width="10" height="10" rx="2" fill="#1a0036"><title>2025-10-19: 0</title></rect><rect x="650" y="268" width="10" height="10" rx="2" fill="#1a0036"><title>2025-10-20: 0</title></rect><rect x="650" y="280" width="10" height="10" rx="2" fill="#1a0036"><title>2025-10-21: 0</title></rect><rect x="650" y="292" width="10" height="10" rx="2" fill="#2a1060"><title>2025-10-22: 1</title></rect><rect x="650" y="304" width="10" height="10" rx="2" fill="#4a1d9c"><title>2025-10-23: 18</title></rect><rect x="650" y="316" width="10" height="10" rx="2" fill="#4a1d9c"><title>2025-10-24: 26</title></rect><rect x="650" y="328" width="10" height="10" rx="2" fill="#4a1d9c"><title>2025-10-25: 26</title></rect><rect x="662" y="256" width="10" height="10" rx="2" fill="#2a1060"><title>2025-10-26: 2</title></rect><rect x="662" y="268" width="10" height="10" rx="2" fill="#1a0036"><title>2025-10-27: 0</title></rect><rect x="662" y="280" width="10" height="10" rx="2" fill="#1a0036"><title>2025-10-28: 0</title></rect><rect x="662" y="292" width="10" height="10" rx="2" fill="#1a0036"><title>2025-10-29: 0</title></rect><rect x="662" y="304" width="10" height="10" rx="2" fill="#1a0036"><title>2025-10-30: 0</title></rect><rect x="662" y="316" width="10" height="10" rx="2" fill="#1a0036"><title>2025-10-31: 0</title></rect><rect x="662" y="328" width="10" height="10" rx="2" fill="#1a0036"><title>2025-11-01: 0</title></rect><rect x="674" y="256" width="10" height="10" rx="2" fill="#1a0036"><title>2025-11-02: 0</title></rect><rect x="674" y="268" width="10" height="10" rx="2" fill="#1a0036"><title>2025-11-03: 0</title></rect><rect x="674" y="280" width="10" height="10" rx="2" fill="#1a0036"><title>2025-11-04: 0</title></rect><rect x="674" y="292" width="10" height="10" rx="2" fill="#1a0036"><title>2025-11-05: 0</title></rect><rect x="674" y="304" width="10" height="10" rx="2" fill="#2a1060"><title>2025-11-06: 5</title></rect><rect x="674" y="316" width="10" height="10" rx="2" fill="#1a0036"><title>2025-11-07: 0</title></rect><rect x="674" y="328" width="10" height="10" rx="2" fill="#1a0036"><title>2025-11-08: 0</title></rect><rect x="686" y="256" width="10" height="10" rx="2" fill="#1a0036"><title>2025-11-09: 0</title></rect><rect x="686" y="268" width="10" height="10" rx="2" fill="#1a0036"><title>2025-11-10: 0</title></rect><rect x="686" y="280" width="10" height="10" rx="2" fill="#1a0036"><title>2025-11-11: 0</title></rect><rect x="686" y="292" width="10" height="10" rx="2" fill="#1a0036"><title>2025-11-12: 0</title></rect><rect x="686" y="304" width="10" height="10" rx="2" fill="#1a0036"><title>2025-11-13: 0</title></rect><rect x="686" y="316" width="10" height="10" rx="2" fill="#1a0036"><title>2025-11-14: 0</title></rect><rect x="686" y="328" width="10" height="10" rx="2" fill="#1a0036"><title>2025-11-15: 0</title></rect><rect x="698" y="256" width="10" height="10" rx="2" fill="#1a0036"><title>2025-11-16: 0</title></rect><rect x="698" y="268" width="10" height="10" rx="2" fill="#1a0036"><title>2025-11-17: 0</title></rect><rect x="698" y="280" width="10" height="10" rx="2" fill="#2a1060"><title>2025-11-18: 7</title></rect><rect x="698" y="292" width="10" height="10" rx="2" fill="#2a1060"><title>2025-11-19: 2</title></rect><rect x="698" y="304" width="10" height="10" rx="2" fill="#4a1d9c"><title>2025-11-20: 14</title></rect><rect x="698" y="316" width="10" height="10" rx="2" fill="#1a0036"><title>2025-11-21: 0</title></rect><rect x="698" y="328" width="10" height="10" rx="2" fill="#1a0036"><title>2025-11-22: 0</title></rect><rect x="710" y="256" width="10" height="10" rx="2" fill="#1a0036"><title>2025-11-23: 0</title></rect><rect x="710" y="268" width="10" height="10" rx="2" fill="#1a0036"><title>2025-11-24: 0</title></rect><rect x="710" y="280" width="10" height="10" rx="2" fill="#1a0036"><title>2025-11-25: 0</title></rect><rect x="710" y="292" width="10" height="10" rx="2" fill="#1a0036"><title>2025-11-26: 0</title></rect><rect x="710" y="304" width="10" height="10" rx="2" fill="#1a0036"><title>2025-11-27: 0</title></rect><rect x="710" y="316" width="10" height="10" rx="2" fill="#1a0036"><title>2025-11-28: 0</title></rect><rect x="710" y="328" width="10" height="10" rx="2" fill="#1a0036"><title>2025-11-29: 0</title></rect><rect x="722" y="256" width="10" height="10" rx="2" fill="#2a1060"><title>2025-11-30: 1</title></rect><rect x="722" y="268" width="10" height="10" rx="2" fill="#1a0036"><title>2025-12-01: 0</title></rect><rect x="722" y="280" width="10" height="10" rx="2" fill="#1a0036"><title>2025-12-02: 0</title></rect><rect x="722" y="292" width="10" height="10" rx="2" fill="#1a0036"><title>2025-12-03: 0</title></rect><rect x="722" y="304" width="10" height="10" rx="2" fill="#1a0036"><title>2025-12-04: 0</title></rect><rect x="722" y="316" width="10" height="10" rx="2" fill="#1a0036"><title>2025-12-05: 0</title></rect><rect x="722" y="328" width="10" height="10" rx="2" fill="#1a0036"><title>2025-12-06: 0</title></rect><rect x="734" y="256" width="10" height="10" rx="2" fill="#1a0036"><title>2025-12-07: 0</title></rect><rect x="734" y="268" width="10" height="10" rx="2" fill="#2a1060"><title>2025-12-08: 1</title></rect><rect x="734" y="280" width="10" height="10" rx="2" fill="#4a1d9c"><title>2025-12-09: 17</title></rect><rect x="734" y="292" width="10" height="10" rx="2" fill="#2a1060"><title>2025-12-10: 6</title></rect><rect x="734" y="304" width="10" height="10" rx="2" fill="#2a1060"><title>2025-12-11: 3</title></rect><rect x="734" y="316" width="10" height="10" rx="2" fill="#1a0036"><title>2025-12-12: 0</title></rect><rect x="734" y="328" width="10" height="10" rx="2" fill="#1a0036"><title>2025-12-13: 0</title></rect><rect x="746" y="256" width="10" height="10" rx="2" fill="#1a0036"><title>2025-12-14: 0</title></rect><rect x="746" y="268" width="10" height="10" rx="2" fill="#1a0036"><title>2025-12-15: 0</title></rect><rect x="746" y="280" width="10" height="10" rx="2" fill="#1a0036"><title>2025-12-16: 0</title></rect><rect x="746" y="292" width="10" height="10" rx="2" fill="#1a0036"><title>2025-12-17: 0</title></rect><rect x="746" y="304" width="10" height="10" rx="2" fill="#1a0036"><title>2025-12-18: 0</title></rect><rect x="746" y="316" width="10" height="10" rx="2" fill="#1a0036"><title>2025-12-19: 0</title></rect><rect x="746" y="328" width="10" height="10" rx="2" fill="#1a0036"><title>2025-12-20: 0</title></rect><rect x="758" y="256" width="10" height="10" rx="2" fill="#1a0036"><title>2025-12-21: 0</title></rect><rect x="758" y="268" width="10" height="10" rx="2" fill="#1a0036"><title>2025-12-22: 0</title></rect><rect x="758" y="280" width="10" height="10" rx="2" fill="#1a0036"><title>2025-12-23: 0</title></rect><rect x="758" y="292" width="10" height="10" rx="2" fill="#1a0036"><title>2025-12-24: 0</title></rect><rect x="758" y="304" width="10" height="10" rx="2" fill="#1a0036"><title>2025-12-25: 0</title></rect><rect x="758" y="316" width="10" height="10" rx="2" fill="#1a0036"><title>2025-12-26: 0</title></rect><rect x="758" y="328" width="10" height="10" rx="2" fill="#1a0036"><title>2025-12-27: 0</title></rect><rect x="770" y="256" width="10" height="10" rx="2" fill="#1a0036"><title>2025-12-28: 0</title></rect><rect x="770" y="268" width="10" height="10" rx="2" fill="#1a0036"><title>2025-12-29: 0</title></rect><rect x="770" y="280" width="10" height="10" rx="2" fill="#1a0036"><title>2025-12-30: 0</title></rect><rect x="770" y="292" width="10" height="10" rx="2" fill="#1a0036"><title>2025-12-31: 0</title></rect><rect x="770" y="304" width="10" height="10" rx="2" fill="#1a0036"><title>2026-01-01: 0</title></rect><rect x="770" y="316" width="10" height="10" rx="2" fill="#1a0036"><title>2026-01-02: 0</title></rect><rect x="770" y="328" width="10" height="10" rx="2" fill="#1a0036"><title>2026-01-03: 0</title></rect><rect x="782" y="256" width="10" height="10" rx="2" fill="#1a0036"><title>2026-01-04: 0</title></rect><rect x="782" y="268" width="10" height="10" rx="2" fill="#1a0036"><title>2026-01-05: 0</title></rect><rect x="782" y="280" width="10" height="10" rx="2" fill="#1a0036"><title>2026-01-06: 0</title></rect><rect x="782" y="292" width="10" height="10" rx="2" fill="#1a0036"><title>2026-01-07: 0</title></rect><rect x="782" y="304" width="10" height="10" rx="2" fill="#1a0036"><title>2026-01-08: 0</title></rect><rect x="782" y="316" width="10" height="10" rx="2" fill="#1a0036"><title>2026-01-09: 0</title></rect><rect x="782" y="328" width="10" height="10" rx="2" fill="#1a0036"><title>2026-01-10: 0</title></rect><rect x="794" y="256" width="10" height="10" rx="2" fill="#1a0036"><title>2026-01-11: 0</title></rect><rect x="794" y="268" width="10" height="10" rx="2" fill="#1a0036"><title>2026-01-12: 0</title></rect><rect x="794" y="280" width="10" height="10" rx="2" fill="#1a0036"><title>2026-01-13: 0</title></rect><rect x="794" y="292" width="10" height="10" rx="2" fill="#1a0036"><title>2026-01-14: 0</title></rect><rect x="794" y="304" width="10" height="10" rx="2" fill="#1a0036"><title>2026-01-15: 0</title></rect><rect x="794" y="316" width="10" height="10" rx="2" fill="#1a0036"><title>2026-01-16: 0</title></rect><rect x="794" y="328" width="10" height="10" rx="2" fill="#1a0036"><title>2026-01-17: 0</title></rect><rect x="806" y="256" width="10" height="10" rx="2" fill="#1a0036"><title>2026-01-18: 0</title></rect><rect x="806" y="268" width="10" height="10" rx="2" fill="#1a0036"><title>2026-01-19: 0</title></rect><rect x="806" y="280" width="10" height="10" rx="2" fill="#1a0036"><title>2026-01-20: 0</title></rect><rect x="806" y="292" width="10" height="10" rx="2" fill="#1a0036"><title>2026-01-21: 0</title></rect><rect x="806" y="304" width="10" height="10" rx="2" fill="#1a0036"><title>2026-01-22: 0</title></rect><rect x="806" y="316" width="10" height="10" rx="2" fill="#1a0036"><title>2026-01-23: 0</title></rect><rect x="806" y="328" width="10" height="10" rx="2" fill="#1a0036"><title>2026-01-24: 0</title></rect><rect x="818" y="256" width="10" height="10" rx="2" fill="#1a0036"><title>2026-01-25: 0</title></rect><rect x="818" y="268" width="10" height="10" rx="2" fill="#1a0036"><title>2026-01-26: 0</title></rect><rect x="818" y="280" width="10" height="10" rx="2" fill="#1a0036"><title>2026-01-27: 0</title></rect><rect x="818" y="292" width="10" height="10" rx="2" fill="#2a1060"><title>2026-01-28: 4</title></rect><rect x="818" y="304" width="10" height="10" rx="2" fill="#2a1060"><title>2026-01-29: 3</title></rect><rect x="818" y="316" width="10" height="10" rx="2" fill="#1a0036"><title>2026-01-30: 0</title></rect><rect x="818" y="328" width="10" height="10" rx="2" fill="#1a0036"><title>2026-01-31: 0</title></rect><rect x="830" y="256" width="10" height="10" rx="2" fill="#1a0036"><title>2026-02-01: 0</title></rect><rect x="830" y="268" width="10" height="10" rx="2" fill="#2a1060"><title>2026-02-02: 1</title></rect><rect x="830" y="280" width="10" height="10" rx="2" fill="#2a1060"><title>2026-02-03: 4</title></rect><rect x="830" y="292" width="10" height="10" rx="2" fill="#2a1060"><title>2026-02-04: 1</title></rect><rect x="830" y="304" width="10" height="10" rx="2" fill="#1a0036"><title>2026-02-05: 0</title></rect><rect x="830" y="316" width="10" height="10" rx="2" fill="#1a0036"><title>2026-02-06: 0</title></rect><rect x="830" y="328" width="10" height="10" rx="2" fill="#2a1060"><title>2026-02-07: 10</title></rect><rect x="842" y="256" width="10" height="10" rx="2" fill="#4a1d9c"><title>2026-02-08: 12</title></rect><rect x="842" y="268" width="10" height="10" rx="2" fill="#1a0036"><title>2026-02-09: 0</title></rect><rect x="842" y="280" width="10" height="10" rx="2" fill="#1a0036"><title>2026-02-10: 0</title></rect><rect x="842" y="292" width="10" height="10" rx="2" fill="#1a0036"><title>2026-02-11: 0</title></rect><rect x="842" y="304" width="10" height="10" rx="2" fill="#1a0036"><title>2026-02-12: 0</title></rect><rect x="842" y="316" width="10" height="10" rx="2" fill="#4a1d9c"><title>2026-02-13: 17</title></rect><rect x="842" y="328" width="10" height="10" rx="2" fill="#4a1d9c"><title>2026-02-14: 12</title></rect><rect x="854" y="256" width="10" height="10" rx="2" fill="#1a0036"><title>2026-02-15: 0</title></rect><rect x="854" y="268" width="10" height="10" rx="2" fill="#1a0036"><title>2026-02-16: 0</title></rect><rect x="854" y="280" width="10" height="10" rx="2" fill="#1a0036"><title>2026-02-17: 0</title></rect><rect x="854" y="292" width="10" height="10" rx="2" fill="#2a1060"><title>2026-02-18: 5</title></rect><rect x="854" y="304" width="10" height="10" rx="2" fill="#2a1060"><title>2026-02-19: 5</title></rect><rect x="854" y="316" width="10" height="10" rx="2" fill="#2a1060"><title>2026-02-20: 1</title></rect><rect x="854" y="328" width="10" height="10" rx="2" fill="#1a0036"><title>2026-02-21: 0</title></rect><rect x="866" y="256" width="10" height="10" rx="2" fill="#1a0036"><title>2026-02-22: 0</title></rect><rect x="866" y="268" width="10" height="10" rx="2" fill="#2a1060"><title>2026-02-23: 3</title></rect><rect x="866" y="280" width="10" height="10" rx="2" fill="#2a1060"><title>2026-02-24: 4</title></rect><rect x="866" y="292" width="10" height="10" rx="2" fill="#2a1060"><title>2026-02-25: 1</title></rect><rect x="866" y="304" width="10" height="10" rx="2" fill="#2a1060"><title>2026-02-26: 7</title></rect><rect x="866" y="316" width="10" height="10" rx="2" fill="#1a0036"><title>2026-02-27: 0</title></rect><rect x="866" y="328" width="10" height="10" rx="2" fill="#2a1060"><title>2026-02-28: 6</title></rect><rect x="878" y="256" width="10" height="10" rx="2" fill="#2a1060"><title>2026-03-01: 4</title></rect><rect x="878" y="268" width="10" height="10" rx="2" fill="#1a0036"><title>2026-03-02: 0</title></rect><rect x="878" y="280" width="10" height="10" rx="2" fill="#1a0036"><title>2026-03-03: 0</title></rect><rect x="878" y="292" width="10" height="10" rx="2" fill="#1a0036"><title>2026-03-04: 0</title></rect><rect x="878" y="304" width="10" height="10" rx="2" fill="#4a1d9c"><title>2026-03-05: 13</title></rect><rect x="878" y="316" width="10" height="10" rx="2" fill="#2a1060"><title>2026-03-06: 8</title></rect><rect x="878" y="328" width="10" height="10" rx="2" fill="#1a0036"><title>2026-03-07: 0</title></rect><rect x="890" y="256" width="10" height="10" rx="2" fill="#1a0036"><title>2026-03-08: 0</title></rect><rect x="890" y="268" width="10" height="10" rx="2" fill="#4a1d9c"><title>2026-03-09: 11</title></rect><rect x="890" y="280" width="10" height="10" rx="2" fill="#4a1d9c"><title>2026-03-10: 20</title></rect><rect x="890" y="292" width="10" height="10" rx="2" fill="#4a1d9c"><title>2026-03-11: 11</title></rect><rect x="890" y="304" width="10" height="10" rx="2" fill="#2a1060"><title>2026-03-12: 8</title></rect><rect x="890" y="316" width="10" height="10" rx="2" fill="#2a1060"><title>2026-03-13: 5</title></rect><rect x="890" y="328" width="10" height="10" rx="2" fill="#4a1d9c"><title>2026-03-14: 24</title></rect><rect x="902" y="256" width="10" height="10" rx="2" fill="#1a0036"><title>2026-03-15: 0</title></rect><rect x="902" y="268" width="10" height="10" rx="2" fill="#1a0036"><title>2026-03-16: 0</title></rect><rect x="902" y="280" width="10" height="10" rx="2" fill="#1a0036"><title>2026-03-17: 0</title></rect><rect x="902" y="292" width="10" height="10" rx="2" fill="#1a0036"><title>2026-03-18: 0</title></rect><rect x="902" y="304" width="10" height="10" rx="2" fill="#1a0036"><title>2026-03-19: 0</title></rect><rect x="902" y="316" width="10" height="10" rx="2" fill="#1a0036"><title>2026-03-20: 0</title></rect><rect x="902" y="328" width="10" height="10" rx="2" fill="#4a1d9c"><title>2026-03-21: 13</title></rect><rect x="914" y="256" width="10" height="10" rx="2" fill="#1a0036"><title>2026-03-22: 0</title></rect><rect x="914" y="268" width="10" height="10" rx="2" fill="#1a0036"><title>2026-03-23: 0</title></rect><rect x="914" y="280" width="10" height="10" rx="2" fill="#2a1060"><title>2026-03-24: 3</title></rect><rect x="914" y="292" width="10" height="10" rx="2" fill="#2a1060"><title>2026-03-25: 10</title></rect><rect x="914" y="304" width="10" height="10" rx="2" fill="#2a1060"><title>2026-03-26: 10</title></rect><rect x="914" y="316" width="10" height="10" rx="2" fill="#2a1060"><title>2026-03-27: 3</title></rect><rect x="914" y="328" width="10" height="10" rx="2" fill="#2a1060"><title>2026-03-28: 1</title></rect><rect x="926" y="256" width="10" height="10" rx="2" fill="#1a0036"><title>2026-03-29: 0</title></rect><rect x="926" y="268" width="10" height="10" rx="2" fill="#2a1060"><title>2026-03-30: 10</title></rect><rect x="926" y="280" width="10" height="10" rx="2" fill="#2a1060"><title>2026-03-31: 2</title></rect><rect x="926" y="292" width="10" height="10" rx="2" fill="#1a0036"><title>2026-04-01: 0</title></rect><rect x="926" y="304" width="10" height="10" rx="2" fill="#1a0036"><title>2026-04-02: 0</title></rect><rect x="926" y="316" width="10" height="10" rx="2" fill="#1a0036"><title>2026-04-03: 0</title></rect><rect x="926" y="328" width="10" height="10" rx="2" fill="#1a0036"><title>2026-04-04: 0</title></rect><rect x="938" y="256" width="10" height="10" rx="2" fill="#1a0036"><title>2026-04-05: 0</title></rect><rect x="938" y="268" width="10" height="10" rx="2" fill="#1a0036"><title>2026-04-06: 0</title></rect><rect x="938" y="280" width="10" height="10" rx="2" fill="#2a1060"><title>2026-04-07: 5</title></rect><rect x="938" y="292" width="10" height="10" rx="2" fill="#2a1060"><title>2026-04-08: 3</title></rect><rect x="938" y="304" width="10" height="10" rx="2" fill="#1a0036"><title>2026-04-09: 0</title></rect><rect x="938" y="316" width="10" height="10" rx="2" fill="#2a1060"><title>2026-04-10: 2</title></rect><rect x="938" y="328" width="10" height="10" rx="2" fill="#4a1d9c"><title>2026-04-11: 16</title></rect><rect x="950" y="256" width="10" height="10" rx="2" fill="#2a1060"><title>2026-04-12: 1</title></rect><rect x="950" y="268" width="10" height="10" rx="2" fill="#4a1d9c"><title>2026-04-13: 14</title></rect><rect x="950" y="280" width="10" height="10" rx="2" fill="#4a1d9c"><title>2026-04-14: 11</title></rect><rect x="950" y="292" width="10" height="10" rx="2" fill="#4a1d9c"><title>2026-04-15: 14</title></rect><rect x="950" y="304" width="10" height="10" rx="2" fill="#4a1d9c"><title>2026-04-16: 18</title></rect><rect x="950" y="316" width="10" height="10" rx="2" fill="#4a1d9c"><title>2026-04-17: 11</title></rect><rect x="950" y="328" width="10" height="10" rx="2" fill="#1a0036"><title>2026-04-18: 0</title></rect><rect x="962" y="256" width="10" height="10" rx="2" fill="#1a0036"><title>2026-04-19: 0</title></rect><rect x="962" y="268" width="10" height="10" rx="2" fill="#4a1d9c"><title>2026-04-20: 15</title></rect><rect x="962" y="280" width="10" height="10" rx="2" fill="#2a1060"><title>2026-04-21: 6</title></rect><rect x="962" y="292" width="10" height="10" rx="2" fill="#2a1060"><title>2026-04-22: 7</title></rect><rect x="962" y="304" width="10" height="10" rx="2" fill="#2a1060"><title>2026-04-23: 8</title></rect><rect x="962" y="316" width="10" height="10" rx="2" fill="#4a1d9c"><title>2026-04-24: 17</title></rect><rect x="962" y="328" width="10" height="10" rx="2" fill="#1a0036"><title>2026-04-25: 0</title></rect><rect x="974" y="256" width="10" height="10" rx="2" fill="#1a0036"><title>2026-04-26: 0</title></rect><rect x="974" y="268" width="10" height="10" rx="2" fill="#1a0036"><title>2026-04-27: 0</title></rect><rect x="974" y="280" width="10" height="10" rx="2" fill="#2a1060"><title>2026-04-28: 3</title></rect><rect x="974" y="292" width="10" height="10" rx="2" fill="#2a1060"><title>2026-04-29: 5</title></rect><rect x="974" y="304" width="10" height="10" rx="2" fill="#1a0036"><title>2026-04-30: 0</title></rect><rect x="974" y="316" width="10" height="10" rx="2" fill="#1a0036"><title>2026-05-01: 0</title></rect><rect x="974" y="328" width="10" height="10" rx="2" fill="#4a1d9c"><title>2026-05-02: 18</title></rect><rect x="986" y="256" width="10" height="10" rx="2" fill="#1a0036"><title>2026-05-03: 0</title></rect><rect x="986" y="268" width="10" height="10" rx="2" fill="#2a1060"><title>2026-05-04: 10</title></rect><rect x="986" y="280" width="10" height="10" rx="2" fill="#2a1060"><title>2026-05-05: 9</title></rect><rect x="986" y="292" width="10" height="10" rx="2" fill="#1a0036"><title>2026-05-06: 0</title></rect><rect x="986" y="304" width="10" height="10" rx="2" fill="#1a0036"><title>2026-05-07: 0</title></rect><rect x="986" y="316" width="10" height="10" rx="2" fill="#1a0036"><title>2026-05-08: 0</title></rect><rect x="986" y="328" width="10" height="10" rx="2" fill="#1a0036"><title>2026-05-09: 0</title></rect><rect x="998" y="256" width="10" height="10" rx="2" fill="#1a0036"><title>2026-05-10: 0</title></rect><rect x="998" y="268" width="10" height="10" rx="2" fill="#1a0036"><title>2026-05-11: 0</title></rect><rect x="998" y="280" width="10" height="10" rx="2" fill="#1a0036"><title>2026-05-12: 0</title></rect><rect x="998" y="292" width="10" height="10" rx="2" fill="#2a1060"><title>2026-05-13: 4</title></rect><rect x="998" y="304" width="10" height="10" rx="2" fill="#2a1060"><title>2026-05-14: 6</title></rect><rect x="998" y="316" width="10" height="10" rx="2" fill="#2a1060"><title>2026-05-15: 1</title></rect><rect x="998" y="328" width="10" height="10" rx="2" fill="#1a0036"><title>2026-05-16: 0</title></rect><rect x="1010" y="256" width="10" height="10" rx="2" fill="#2a1060"><title>2026-05-17: 4</title></rect><rect x="1010" y="268" width="10" height="10" rx="2" fill="#4a1d9c"><title>2026-05-18: 19</title></rect><rect x="1010" y="280" width="10" height="10" rx="2" fill="#2a1060"><title>2026-05-19: 6</title></rect><rect x="1010" y="292" width="10" height="10" rx="2" fill="#2a1060"><title>2026-05-20: 6</title></rect><rect x="1010" y="304" width="10" height="10" rx="2" fill="#1a0036"><title>2026-05-21: 0</title></rect><rect x="1010" y="316" width="10" height="10" rx="2" fill="#1a0036"><title>2026-05-22: 0</title></rect><rect x="1010" y="328" width="10" height="10" rx="2" fill="#1a0036"><title>2026-05-23: 0</title></rect><rect x="1022" y="256" width="10" height="10" rx="2" fill="#1a0036"><title>2026-05-24: 0</title></rect><rect x="1022" y="268" width="10" height="10" rx="2" fill="#2a1060"><title>2026-05-25: 3</title></rect><rect x="1022" y="280" width="10" height="10" rx="2" fill="#2a1060"><title>2026-05-26: 1</title></rect><rect x="1022" y="292" width="10" height="10" rx="2" fill="#1a0036"><title>2026-05-27: 0</title></rect><rect x="1022" y="304" width="10" height="10" rx="2" fill="#1a0036"><title>2026-05-28: 0</title></rect><rect x="1022" y="316" width="10" height="10" rx="2" fill="#1a0036"><title>2026-05-29: 0</title></rect><rect x="1022" y="328" width="10" height="10" rx="2" fill="#1a0036"><title>2026-05-30: 0</title></rect><rect x="1034" y="256" width="10" height="10" rx="2" fill="#1a0036"><title>2026-05-31: 0</title></rect><rect x="1034" y="268" width="10" height="10" rx="2" fill="#1a0036"><title>2026-06-01: 0</title></rect><rect x="1034" y="280" width="10" height="10" rx="2" fill="#2a1060"><title>2026-06-02: 1</title></rect><rect x="1034" y="292" width="10" height="10" rx="2" fill="#2a1060"><title>2026-06-03: 1</title></rect><rect x="1034" y="304" width="10" height="10" rx="2" fill="#2a1060"><title>2026-06-04: 2</title></rect><rect x="1034" y="316" width="10" height="10" rx="2" fill="#1a0036"><title>2026-06-05: 0</title></rect><rect x="1034" y="328" width="10" height="10" rx="2" fill="#2a1060"><title>2026-06-06: 1</title></rect><rect x="1046" y="256" width="10" height="10" rx="2" fill="#1a0036"><title>2026-06-07: 0</title></rect><rect x="1046" y="268" width="10" height="10" rx="2" fill="#2a1060"><title>2026-06-08: 9</title></rect><rect x="1046" y="280" width="10" height="10" rx="2" fill="#1a0036"><title>2026-06-09: 0</title></rect><rect x="1046" y="292" width="10" height="10" rx="2" fill="#2a1060"><title>2026-06-10: 3</title></rect><rect x="1046" y="304" width="10" height="10" rx="2" fill="#4a1d9c"><title>2026-06-11: 21</title></rect><rect x="1046" y="316" width="10" height="10" rx="2" fill="#1a0036"><title>2026-06-12: 0</title></rect><rect x="1046" y="328" width="10" height="10" rx="2" fill="#2a1060"><title>2026-06-13: 1</title></rect><rect x="1058" y="256" width="10" height="10" rx="2" fill="#1a0036"><title>2026-06-14: 0</title></rect><rect x="1058" y="268" width="10" height="10" rx="2" fill="#2a1060"><title>2026-06-15: 5</title></rect><rect x="1058" y="280" width="10" height="10" rx="2" fill="#2a1060"><title>2026-06-16: 2</title></rect><rect x="1058" y="292" width="10" height="10" rx="2" fill="#4a1d9c"><title>2026-06-17: 13</title></rect><rect x="1058" y="304" width="10" height="10" rx="2" fill="#1a0036"><title>2026-06-18: 0</title></rect><rect x="1058" y="316" width="10" height="10" rx="2" fill="#2a1060"><title>2026-06-19: 2</title></rect><rect x="1058" y="328" width="10" height="10" rx="2" fill="#7c4dff"><title>2026-06-20: 45</title></rect><rect x="1070" y="256" width="10" height="10" rx="2" fill="#4a1d9c"><title>2026-06-21: 18</title></rect><rect x="1070" y="268" width="10" height="10" rx="2" fill="#1a0036"><title>2026-06-22: 0</title></rect><rect x="1070" y="280" width="10" height="10" rx="2" fill="#1a0036"><title>2026-06-23: 0</title></rect><rect x="1070" y="292" width="10" height="10" rx="2" fill="#ff3dd1"><title>2026-06-24: 64</title></rect><rect x="1070" y="304" width="10" height="10" rx="2" fill="#4a1d9c"><title>2026-06-25: 26</title></rect><rect x="1070" y="316" width="10" height="10" rx="2" fill="#2a1060"><title>2026-06-26: 6</title></rect><rect x="1070" y="328" width="10" height="10" rx="2" fill="#1a0036"><title>2026-06-27: 0</title></rect><rect x="1082" y="256" width="10" height="10" rx="2" fill="#1a0036"><title>2026-06-28: 0</title></rect><rect x="1082" y="268" width="10" height="10" rx="2" fill="#1a0036"><title>2026-06-29: 0</title></rect><rect x="1082" y="280" width="10" height="10" rx="2" fill="#1a0036"><title>2026-06-30: 0</title></rect><rect x="1082" y="292" width="10" height="10" rx="2" fill="#4a1d9c"><title>2026-07-01: 14</title></rect><rect x="1082" y="304" width="10" height="10" rx="2" fill="#4a1d9c"><title>2026-07-02: 16</title></rect><rect x="1082" y="316" width="10" height="10" rx="2" fill="#2a1060"><title>2026-07-03: 3</title></rect><rect x="1082" y="328" width="10" height="10" rx="2" fill="#2a1060"><title>2026-07-04: 6</title></rect><rect x="1094" y="256" width="10" height="10" rx="2" fill="#1a0036"><title>2026-07-05: 0</title></rect><rect x="1094" y="268" width="10" height="10" rx="2" fill="#2a1060"><title>2026-07-06: 5</title></rect><rect x="1094" y="280" width="10" height="10" rx="2" fill="#4a1d9c"><title>2026-07-07: 13</title></rect><rect x="1094" y="292" width="10" height="10" rx="2" fill="#1a0036"><title>2026-07-08: 0</title></rect><rect x="1094" y="304" width="10" height="10" rx="2" fill="#2a1060"><title>2026-07-09: 1</title></rect><rect x="1094" y="316" width="10" height="10" rx="2" fill="#2a1060"><title>2026-07-10: 7</title></rect><rect x="1094" y="328" width="10" height="10" rx="2" fill="#1a0036"><title>2026-07-11: 0</title></rect><rect x="1106" y="256" width="10" height="10" rx="2" fill="#1a0036"><title>2026-07-12: 0</title></rect><rect x="1106" y="268" width="10" height="10" rx="2" fill="#1a0036"><title>2026-07-13: 0</title></rect><rect x="1106" y="280" width="10" height="10" rx="2" fill="#2a1060"><title>2026-07-14: 3</title></rect><rect x="1106" y="292" width="10" height="10" rx="2" fill="#1a0036"><title>2026-07-15: 0</title></rect><rect x="1106" y="304" width="10" height="10" rx="2" fill="#2a1060"><title>2026-07-16: 4</title></rect><rect x="1106" y="316" width="10" height="10" rx="2" fill="#2a1060"><title>2026-07-17: 10</title></rect><rect x="1106" y="328" width="10" height="10" rx="2" fill="#1a0036"><title>2026-07-18: 0</title></rect><rect x="1118" y="256" width="10" height="10" rx="2" fill="#1a0036"><title>2026-07-19: 0</title></rect><rect x="1118" y="268" width="10" height="10" rx="2" fill="#4a1d9c"><title>2026-07-20: 18</title></rect><rect x="1118" y="280" width="10" height="10" rx="2" fill="#2a1060"><title>2026-07-21: 9</title></rect><rect x="1118" y="292" width="10" height="10" rx="2" fill="#1a0036"><title>2026-07-22: 0</title></rect><rect x="1118" y="304" width="10" height="10" rx="2" fill="#2a1060"><title>2026-07-23: 1</title></rect><rect x="1118" y="316" width="10" height="10" rx="2" fill="#1a0036"><title>2026-07-24: 0</title></rect><rect x="1118" y="328" width="10" height="10" rx="2" fill="#1a0036"><title>2026-07-25: 0</title></rect><rect x="1130" y="256" width="10" height="10" rx="2" fill="#2a1060"><title>2026-07-26: 1</title></rect><rect x="1130" y="268" width="10" height="10" rx="2" fill="#4a1d9c"><title>2026-07-27: 11</title></rect><rect x="1130" y="280" width="10" height="10" rx="2" fill="#2a1060"><title>2026-07-28: 6</title></rect><rect x="1130" y="292" width="10" height="10" rx="2" fill="#1a0036"><title>2026-07-29: 0</title></rect><rect x="1130" y="304" width="10" height="10" rx="2" fill="#1a0036"><title>2026-07-30: 0</title></rect><rect x="1130" y="316" width="10" height="10" rx="2" fill="#1a0036"><title>2026-07-31: 0</title></rect><rect x="1130" y="328" width="10" height="10" rx="2" fill="#1a0036"><title>2026-08-01: 0</title></rect><rect x="1142" y="256" width="10" height="10" rx="2" fill="#1a0036"><title>2026-08-02: 0</title></rect><rect x="1142" y="268" width="10" height="10" rx="2" fill="#1a0036"><title>2026-08-03: 0</title></rect><rect x="1142" y="280" width="10" height="10" rx="2" fill="#1a0036"><title>2026-08-04: 0</title></rect><rect x="1142" y="292" width="10" height="10" rx="2" fill="#1a0036"><title>2026-08-05: 0</title></rect><rect x="1142" y="304" width="10" height="10" rx="2" fill="#1a0036"><title>2026-08-06: 0</title></rect><rect x="1142" y="316" width="10" height="10" rx="2" fill="#1a0036"><title>2026-08-07: 0</title></rect><rect x="1142" y="328" width="10" height="10" rx="2" fill="#1a0036"><title>2026-08-08: 0</title></rect><rect x="1154" y="256" width="10" height="10" rx="2" fill="#1a0036"><title>2026-08-09: 0</title></rect><rect x="1154" y="268" width="10" height="10" rx="2" fill="#4a1d9c"><title>2026-08-10: 14</title></rect><rect x="1154" y="280" width="10" height="10" rx="2" fill="#2a1060"><title>2026-08-11: 10</title></rect><rect x="1154" y="292" width="10" height="10" rx="2" fill="#1a0036"><title>2026-08-12: 0</title></rect><rect x="1154" y="304" width="10" height="10" rx="2" fill="#2a1060"><title>2026-08-13: 2</title></rect><rect x="1154" y="316" width="10" height="10" rx="2" fill="#2a1060"><title>2026-08-14: 1</title></rect><rect x="1154" y="328" width="10" height="10" rx="2" fill="#2a1060"><title>2026-08-15: 4</title></rect><rect x="1166" y="256" width="10" height="10" rx="2" fill="#2a1060"><title>2026-08-16: 5</title></rect><rect x="1166" y="268" width="10" height="10" rx="2" fill="#2a1060"><title>2026-08-17: 9</title></rect><rect x="1166" y="280" width="10" height="10" rx="2" fill="#2a1060"><title>2026-08-18: 5</title></rect><rect x="1166" y="292" width="10" height="10" rx="2" fill="#2a1060"><title>2026-08-19: 4</title></rect><rect x="1166" y="304" width="10" height="10" rx="2" fill="#2a1060"><title>2026-08-20: 4</title></rect><rect x="1166" y="316" width="10" height="10" rx="2" fill="#2a1060"><title>2026-08-21: 1</title></rect><rect x="1166" y="328" width="10" height="10" rx="2" fill="#2a1060"><title>2026-08-22: 5</title></rect><rect x="1178" y="256" width="10" height="10" rx="2" fill="#2a1060"><title>2026-08-23: 10</title></rect><rect x="1178" y="268" width="10" height="10" rx="2" fill="#00f5ff"><title>2026-08-24: 87</title></rect><rect x="1178" y="280" width="10" height="10" rx="2" fill="#4a1d9c"><title>2026-08-25: 15</title></rect><rect x="1178" y="292" width="10" height="10" rx="2" fill="#2a1060"><title>2026-08-26: 4</title></rect><rect x="1178" y="304" width="10" height="10" rx="2" fill="#4a1d9c"><title>2026-08-27: 24</title></rect><rect x="1178" y="316" width="10" height="10" rx="2" fill="#7c4dff"><title>2026-08-28: 33</title></rect><rect x="1178" y="328" width="10" height="10" rx="2" fill="#4a1d9c"><title>2026-08-29: 14</title></rect><rect x="1190" y="256" width="10" height="10" rx="2" fill="#4a1d9c"><title>2026-08-30: 17</title></rect><rect x="1190" y="268" width="10" height="10" rx="2" fill="#1a0036"><title>2026-08-31: 0</title></rect><rect x="1190" y="280" width="10" height="10" rx="2" fill="#4a1d9c"><title>2026-09-01: 25</title></rect><rect x="1190" y="292" width="10" height="10" rx="2" fill="#2a1060"><title>2026-09-02: 1</title></rect><rect x="1190" y="304" width="10" height="10" rx="2" fill="#7c4dff"><title>2026-09-03: 37</title></rect><rect x="1190" y="316" width="10" height="10" rx="2" fill="#1a0036"><title>2026-09-04: 0</title></rect><rect x="1190" y="328" width="10" height="10" rx="2" fill="#1a0036"><title>2026-09-05: 0</title></rect>
  <g font-family="'Courier New',Courier,monospace" font-size="10" fill="#8a7ab8">
    <text x="1088" y="378">LESS</text>
    <rect x="1124" y="368" width="10" height="10" rx="2" fill="#1a0036"/>
    <rect x="1138" y="368" width="10" height="10" rx="2" fill="#2a1060"/>
    <rect x="1152" y="368" width="10" height="10" rx="2" fill="#7c4dff"/>
    <rect x="1166" y="368" width="10" height="10" rx="2" fill="#ff3dd1"/>
    <rect x="1180" y="368" width="10" height="10" rx="2" fill="#00f5ff"/>
    <text x="1196" y="378">MORE</text>
  </g>

  <line x1="0" y1="404" x2="1280" y2="404" stroke="#00f5ff" stroke-width="1" stroke-opacity=".28"/>
  <line x1="0" y1="407" x2="1280" y2="407" stroke="#ff3dd1" stroke-width=".75" stroke-opacity=".18"/>
  <rect x="0" y="410" width="1280" height="20" fill="#1c003e"/>
  <text x="28" y="424" font-family="'Courier New',Courier,monospace" font-size="11" fill="#8a7ab8">FOLLOWERS 6   FOLLOWING 5   SINCE 2023   PRIVATE SIGNAL INCLUDED   UPDATED 2026-09-04</text>

  <rect x="0" y="0" width="1280" height="2" fill="#ffffff" opacity=".07" clip-path="url(#mainClip)">
    <animateTransform attributeName="transform" type="translate" values="0,-2;0,432" dur="8s" repeatCount="indefinite" calcMode="linear"/>
  </rect>
</svg>
